<?xml version="1.0" standalone="no"?>
<!DOCTYPE svg PUBLIC "-//W3C//DTD SVG 20010904//EN"
 "http://www.w3.org/TR/2001/REC-SVG-20010904/DTD/svg10.dtd">
<svg version="1.0" xmlns="http://www.w3.org/2000/svg"
 width="331.000000pt" height="247.000000pt" viewBox="0 0 331.000000 247.000000"
 preserveAspectRatio="xMidYMid meet">

<g transform="translate(0.000000,247.000000) scale(0.100000,-0.100000)"
fill="#000000" stroke="none">
<path d="M826 1718 c-3 -7 -7 -84 -10 -170 l-5 -158 24 -6 c20 -5 78 4 143 22
25 7 8 39 -18 36 -14 -1 -49 -5 -78 -9 l-53 -6 5 34 c22 134 39 216 48 226 7
9 7 17 -2 28 -15 18 -49 20 -54 3z"/>
<path d="M1636 1678 c-9 -12 -16 -32 -16 -43 -1 -11 -7 -33 -14 -50 l-13 -30
-12 58 c-13 59 -35 83 -52 56 -18 -28 -47 -116 -54 -163 -8 -48 -7 -48 20 -44
27 3 28 5 31 71 2 37 8 76 13 85 11 19 9 22 31 -50 15 -49 36 -48 51 2 7 22
18 45 26 51 10 9 13 3 13 -35 0 -58 29 -217 43 -231 6 -6 7 21 3 78 -5 57 -4
87 3 87 6 0 8 7 5 15 -3 8 -9 47 -13 87 -5 65 -8 73 -28 76 -13 2 -27 -5 -37
-20z"/>
<path d="M607 1682 c-8 -16 1 -171 12 -218 12 -49 15 -52 49 -58 20 -3 53 -5
72 -5 32 1 31 2 -16 14 -66 16 -73 21 -90 61 -17 41 -18 62 -1 61 6 0 35 1 62
2 l50 3 -35 10 c-19 5 -47 8 -62 6 -27 -4 -28 -3 -22 31 4 20 8 39 10 42 4 7
91 20 137 21 27 1 37 15 15 23 -25 7 -178 13 -181 7z"/>
<path d="M1759 1679 c-7 -4 -9 -14 -4 -25 4 -11 6 -47 5 -81 -1 -59 11 -124
29 -151 5 -8 34 -15 72 -18 l64 -4 -50 15 c-55 16 -95 53 -95 89 0 26 20 35
80 37 32 1 33 2 10 9 -14 4 -40 8 -57 9 -29 1 -33 4 -33 30 0 16 6 33 13 39
13 11 84 23 136 23 29 0 32 2 20 14 -16 14 -171 26 -190 14z"/>
<path d="M553 1674 c4 -4 -4 -21 -17 -38 -12 -17 -26 -52 -30 -77 -4 -26 -13
-54 -20 -64 -11 -16 -14 -14 -25 16 -31 84 -42 85 -71 7 -12 -35 -26 -67 -30
-71 -4 -5 -11 32 -15 83 -6 77 -10 90 -24 87 -9 -2 -15 -9 -13 -17 14 -61 22
-120 22 -161 0 -68 22 -64 56 10 l27 59 23 -49 c35 -74 79 -62 102 26 50 190
49 180 25 189 -10 4 -14 4 -10 0z"/>
<path d="M1072 1666 c-50 -19 -63 -38 -69 -103 -7 -71 3 -93 59 -133 70 -51
130 -35 157 41 14 41 -7 38 -52 -6 -42 -41 -65 -44 -95 -12 -66 70 -17 197 64
167 43 -17 61 12 28 44 -18 18 -45 19 -92 2z"/>
<path d="M1330 1652 c0 -5 -17 -21 -38 -37 -37 -27 -38 -30 -37 -88 1 -52 5
-63 29 -83 58 -50 119 -42 149 18 16 32 17 44 7 72 -13 41 -34 60 -56 52 -15
-6 -15 -8 0 -31 21 -33 12 -102 -15 -110 -27 -9 -37 0 -50 45 -10 34 -9 46 6
80 10 22 24 40 30 40 21 0 36 25 23 38 -14 14 -48 16 -48 4z"/>
<path d="M856 1111 c-4 -5 -2 -12 3 -15 5 -4 12 -2 15 3 4 5 2 12 -3 15 -5 4
-12 2 -15 -3z"/>
<path d="M875 1061 c-112 -7 -148 -21 -143 -54 4 -29 49 -45 88 -30 29 11 30
10 30 -18 0 -17 -13 -69 -29 -117 -34 -101 -74 -252 -68 -258 9 -9 26 25 60
121 36 104 95 243 108 259 5 5 4 17 -1 27 -6 10 -6 20 -1 23 5 3 54 9 110 12
90 6 116 14 94 27 -17 10 -153 14 -248 8z"/>
<path d="M1177 1008 c-3 -10 -25 -27 -49 -38 -24 -11 -53 -28 -63 -40 -10 -11
-25 -20 -32 -20 -8 0 -13 -6 -10 -12 2 -7 -4 -28 -15 -45 -28 -46 -35 -135
-14 -167 26 -41 71 -59 124 -51 38 6 55 16 98 61 59 60 74 98 65 163 -7 50
-31 73 -58 55 -14 -9 -17 -23 -15 -60 3 -65 -42 -149 -85 -157 -15 -3 -32 -2
-37 3 -14 14 -8 97 9 130 23 45 75 100 94 100 44 0 82 66 50 85 -24 16 -57 12
-62 -7z"/>
<path d="M2226 958 c-3 -7 -7 -84 -10 -170 l-5 -158 24 -6 c20 -5 78 4 143 22
25 7 8 39 -18 36 -14 -1 -49 -5 -78 -9 l-53 -6 5 34 c22 134 39 216 48 226 7
9 7 17 -2 28 -15 18 -49 20 -54 3z"/>
<path d="M2427 964 c-4 -4 -7 -53 -7 -108 0 -56 -4 -128 -10 -160 -5 -33 -7
-62 -4 -65 16 -16 175 5 181 24 1 6 -2 17 -7 25 -7 12 -14 12 -43 2 -46 -16
-107 -16 -107 1 0 8 9 63 21 123 28 147 29 158 4 162 -12 2 -24 0 -28 -4z"/>
<path d="M2087 943 c-4 -3 -7 -15 -7 -25 0 -14 -8 -18 -35 -18 -19 0 -35 -5
-35 -11 0 -7 12 -9 35 -5 32 6 35 5 35 -16 1 -13 3 -62 6 -110 5 -82 4 -88
-14 -88 -26 0 -44 -23 -36 -45 9 -22 55 -14 84 15 11 11 30 20 43 21 15 1 9 4
-16 11 l-38 10 3 101 3 102 30 6 30 7 -27 1 c-23 1 -28 6 -28 26 0 24 -18 34
-33 18z"/>
<path d="M2820 925 c0 -23 -4 -25 -41 -25 -26 0 -38 -4 -33 -11 4 -6 20 -8 40
-4 l34 6 1 -73 c0 -40 2 -88 4 -105 3 -27 -1 -35 -23 -45 -16 -8 -27 -21 -27
-33 0 -27 55 -25 84 4 11 11 31 21 44 22 15 0 9 4 -18 12 l-39 12 3 95 c1 52
5 98 7 102 3 4 36 7 74 5 67 -2 69 -3 74 -31 3 -16 6 -65 7 -110 2 -142 15
-140 22 4 3 84 2 139 -4 147 -10 11 -2 14 106 26 17 2 -23 5 -87 6 -92 1 -120
-2 -132 -14 -24 -25 -56 -19 -56 10 0 18 -5 25 -20 25 -15 0 -20 -7 -20 -25z"/>
<path d="M1947 885 c-31 -25 -59 -45 -61 -45 -3 0 -6 15 -8 33 -2 27 -7 32
-28 32 -22 0 -25 -4 -24 -35 2 -86 17 -240 24 -240 4 0 10 32 14 72 3 39 9 74
11 77 3 2 22 -10 43 -27 124 -106 145 -109 46 -7 l-66 67 29 30 c15 17 46 43
67 59 21 16 33 29 25 29 -8 -1 -40 -21 -72 -45z"/>
<path d="M1705 901 c-22 -4 -31 -13 -33 -30 -4 -23 -3 -23 13 -8 21 21 43 22
67 0 23 -20 32 -12 24 22 -7 26 -16 28 -71 16z"/>
<path d="M1670 806 c0 -9 13 -22 30 -31 16 -8 34 -24 40 -34 26 -49 -2 -107
-46 -98 -13 2 -21 0 -18 -4 10 -16 54 -9 74 11 39 39 22 99 -41 143 -30 22
-39 25 -39 13z"/>
<path d="M2594 709 c-13 -22 13 -28 86 -22 l75 7 -40 12 c-51 16 -112 17 -121
3z"/>
</g>
</svg>
